<svg id="Logos" xmlns="http://www.w3.org/2000/svg" viewBox="0 0 515 185" xmlns:c2pa="http://c2pa.org/manifest"><metadata><c2pa:manifest>AAAWgmp1bWIAAAAeanVtZGMycGEAEQAQgAAAqgA4m3EDYzJwYQAAABZcanVtYgAAAEdqdW1kYzJtYQARABCAAACqADibcQN1cm46YzJwYToyZjAyZmVlMS1jNjJjLTQ2OWYtYjUwYy0yYWMzY2I2ODliMDMAAAADl2p1bWIAAAApanVtZGMyYXMAEQAQgAAAqgA4m3EDYzJwYS5hc3NlcnRpb25zAAAAALxqdW1iAAAARGp1bWRjYm9yABEAEIAAAKoAOJtxE2MycGEuaW5ncmVkaWVudC52MwAAAAAYYzJzaMOW7ShQM7KXSrBFsTGzRXkAAABwY2JvcqNpZGM6Zm9ybWF0bWltYWdlL3N2Zyt4bWxqaW5zdGFuY2VJRHgseG1wOmlpZDozMjMwNzM1YS02NDYzLTQxYjktOTgwNC0zMjhiMTE3ZGEwMjJscmVsYXRpb25zaGlwaHBhcmVudE9mAAAB4mp1bWIAAABBanVtZGNib3IAEQAQgAAAqgA4m3ETYzJwYS5hY3Rpb25zLnYyAAAAABhjMnNomTclF3rAtnKn5AFzhC6pEQAAAZljYm9yomdhY3Rpb25zgqJmYWN0aW9ua2MycGEub3BlbmVkanBhcmFtZXRlcnOha2luZ3JlZGllbnRzgaJjdXJseC1zZWxmI2p1bWJmPWMycGEuYXNzZXJ0aW9ucy9jMnBhLmluZ3JlZGllbnQudjNkaGFzaFggXBuw0SPaLGmWhR9edZ4jgh9ENGewhw7wOUWNXVV0YDGkZmFjdGlvbngdY29tLmFudGhyb3BpYy5jbGF1ZGUucHJvdmlkZWRqcGFyYW1ldGVyc6F4H2NvbS5hbnRocm9waWMub3JpZ2luLWNvbmZpZGVuY2VndW5rbm93bmtkZXNjcmlwdGlvbnhmQ2xhdWRlIHByb3ZpZGVkIHRoaXMgZmlsZSBhdCB0aGUgcmVxdWVzdCBvZiBhIHVzZXIgYW5kIG1heSBoYXZlIGNyZWF0ZWQgb3IgbW9kaWZpZWQgdGhlIGZpbGUgY29udGVudHMubXNvZnR3YXJlQWdlbnShZG5hbWVmQ2xhdWRlcmFsbEFjdGlvbnNJbmNsdWRlZPUAAADIanVtYgAAAEBqdW1kY2JvcgARABCAAACqADibcRNjMnBhLmhhc2guZGF0YQAAAAAYYzJzaLV5n+lyhwW+t1UH+0tBh6oAAACAY2JvcqVjYWxnZnNoYTI1NmNwYWRNAAAAAAAAAAAAAAAAAGRoYXNoWCAhA44eYEH4bGyG+RqFQSunEplI+tBeWSvP0zALLW+BbWRuYW1lbmp1bWJmIG1hbmlmZXN0amV4Y2x1c2lvbnOBomVzdGFydBiIZmxlbmd0aBkeBAAAAj5qdW1iAAAAJ2p1bWRjMmNsABEAEIAAAKoAOJtxA2MycGEuY2xhaW0udjIAAAACD2Nib3KlY2FsZ2ZzaGEyNTZpc2lnbmF0dXJleE1zZWxmI2p1bWJmPS9jMnBhL3VybjpjMnBhOjJmMDJmZWUxLWM2MmMtNDY5Zi1iNTBjLTJhYzNjYjY4OWIwMy9jMnBhLnNpZ25hdHVyZWppbnN0YW5jZUlEeCx4bXA6aWlkOjNiNDJlMDVjLWI4MjMtNDgzMC1iNTg5LTdiYTU5YTEwODMyOHJjcmVhdGVkX2Fzc2VydGlvbnODomN1cmx4LXNlbGYjanVtYmY9YzJwYS5hc3NlcnRpb25zL2MycGEuaW5ncmVkaWVudC52M2RoYXNoWCBcG7DRI9osaZaFH151niOCH0Q0Z7CHDvA5RY1dVXRgMaJjdXJseCpzZWxmI2p1bWJmPWMycGEuYXNzZXJ0aW9ucy9jMnBhLmFjdGlvbnMudjJkaGFzaFggVDn2YXZyj47xe4lshKkW8gEOygry5xOJFGtR2QHdF6WiY3VybHgpc2VsZiNqdW1iZj1jMnBhLmFzc2VydGlvbnMvYzJwYS5oYXNoLmRhdGFkaGFzaFgg6yFxtr3juruy9v4hVvPhYXluWD//hKRop+klBtwRkrJ0Y2xhaW1fZ2VuZXJhdG9yX2luZm+jZG5hbWVvQW50aHJvcGljIEZpbGVzZ3ZlcnNpb25lMS4wLjBrc3BlY1ZlcnNpb25lMi40LjAAABA4anVtYgAAAChqdW1kYzJjcwARABCAAACqADibcQNjMnBhLnNpZ25hdHVyZQAAABAIY2JvctKEWQISogEmGCFZAgowggIGMIIBjaADAgECAhRA5aAK7sI50L64g/oGQgU9Z1UTADAKBggqhkjOPQQDAzBJMRcwFQYDVQQKEw5BbnRocm9waWMsIFBCQzEuMCwGA1UEAxMlQW50aHJvcGljIENvbnRlbnQgQ3JlZGVudGlhbHMgUm9vdCBDQTAeFw0yNjA4MDcxODQzNTZaFw0yODA4MDYxOTQzNTZaMEQxFzAVBgNVBAoTDkFudGhyb3BpYywgUEJDMSkwJwYDVQQDEyBBbnRocm9waWMgQ2xhdWRlIENvbnRlbnQgU2lnbmluZzBZMBMGByqGSM49AgEGCCqGSM49AwEHA0IABJh6CmvLUBgFFNU0vUKlOVtE6djd17L5SuwX0LemFisBM3dkd/3cyjxFA3Qo5S46fX0/ihY0VZ7mfb9KF703t5OjWDBWMA4GA1UdDwEB/wQEAwIHgDAVBgNVHSUEDjAMBgorBgEEAYPoXgIBMAwGA1UdEwEB/wQCMAAwHwYDVR0jBBgwFoAUzlHiBIFOZFsj+OPEz5o+nMHXXMIwCgYIKoZIzj0EAwMDZwAwZAIwMXMdFJ4BetLLVY7ORuE9noqbbAZOZn/aArXyTwFAZfKrPzxF2vPoJNf1+UCdg1XGAjBwX1zd9WGqYkqmL5SFqw1QySjr1zJfpJM9+1rdDwSPLMOPOjKuiXjoU/pUUeG9RwmhY3BhZFkNngAAAAAAAAAAAAAAAAAAAAAAAAAAAAAAAAAAAAAAAAAAAAAAAAAAAAAAAAAAAAAAAAAAAAAAAAAAAAAAAAAAAAAAAAAAAAAAAAAAAAAAAAAAAAAAAAAAAAAAAAAAAAAAAAAAAAAAAAAAAAAAAAAAAAAAAAAAAAAAAAAAAAAAAAAAAAAAAAAAAAAAAAAAAAAAAAAAAAAAAAAAAAAAAAAAAAAAAAAAAAAAAAAAAAAAAAAAAAAAAAAAAAAAAAAAAAAAAAAAAAAAAAAAAAAAAAAAAAAAAAAAAAAAAAAAAAAAAAAAAAAAAAAAAAAAAAAAAAAAAAAAAAAAAAAAAAAAAAAAAAAAAAAAAAAAAAAAAAAAAAAAAAAAAAAAAAAAAAAAAAAAAAAAAAAAAAAAAAAAAAAAAAAAAAAAAAAAAAAAAAAAAAAAAAAAAAAAAAAAAAAAAAAAAAAAAAAAAAAAAAAAAAAAAAAAAAAAAAAAAAAAAAAAAAAAAAAAAAAAAAAAAAAAAAAAAAAAAAAAAAAAAAAAAAAAAAAAAAAAAAAAAAAAAAAAAAAAAAAAAAAAAAAAAAAAAAAAAAAAAAAAAAAAAAAAAAAAAAAAAAAAAAAAAAAAAAAAAAAAAAAAAAAAAAAAAAAAAAAAAAAAAAAAAAAAAAAAAAAAAAAAAAAAAAAAAAAAAAAAAAAAAAAAAAAAAAAAAAAAAAAAAAAAAAAAAAAAAAAAAAAAAAAAAAAAAAAAAAAAAAAAAAAAAAAAAAAAAAAAAAAAAAAAAAAAAAAAAAAAAAAAAAAAAAAAAAAAAAAAAAAAAAAAAAAAAAAAAAAAAAAAAAAAAAAAAAAAAAAAAAAAAAAAAAAAAAAAAAAAAAAAAAAAAAAAAAAAAAAAAAAAAAAAAAAAAAAAAAAAAAAAAAAAAAAAAAAAAAAAAAAAAAAAAAAAAAAAAAAAAAAAAAAAAAAAAAAAAAAAAAAAAAAAAAAAAAAAAAAAAAAAAAAAAAAAAAAAAAAAAAAAAAAAAAAAAAAAAAAAAAAAAAAAAAAAAAAAAAAAAAAAAAAAAAAAAAAAAAAAAAAAAAAAAAAAAAAAAAAAAAAAAAAAAAAAAAAAAAAAAAAAAAAAAAAAAAAAAAAAAAAAAAAAAAAAAAAAAAAAAAAAAAAAAAAAAAAAAAAAAAAAAAAAAAAAAAAAAAAAAAAAAAAAAAAAAAAAAAAAAAAAAAAAAAAAAAAAAAAAAAAAAAAAAAAAAAAAAAAAAAAAAAAAAAAAAAAAAAAAAAAAAAAAAAAAAAAAAAAAAAAAAAAAAAAAAAAAAAAAAAAAAAAAAAAAAAAAAAAAAAAAAAAAAAAAAAAAAAAAAAAAAAAAAAAAAAAAAAAAAAAAAAAAAAAAAAAAAAAAAAAAAAAAAAAAAAAAAAAAAAAAAAAAAAAAAAAAAAAAAAAAAAAAAAAAAAAAAAAAAAAAAAAAAAAAAAAAAAAAAAAAAAAAAAAAAAAAAAAAAAAAAAAAAAAAAAAAAAAAAAAAAAAAAAAAAAAAAAAAAAAAAAAAAAAAAAAAAAAAAAAAAAAAAAAAAAAAAAAAAAAAAAAAAAAAAAAAAAAAAAAAAAAAAAAAAAAAAAAAAAAAAAAAAAAAAAAAAAAAAAAAAAAAAAAAAAAAAAAAAAAAAAAAAAAAAAAAAAAAAAAAAAAAAAAAAAAAAAAAAAAAAAAAAAAAAAAAAAAAAAAAAAAAAAAAAAAAAAAAAAAAAAAAAAAAAAAAAAAAAAAAAAAAAAAAAAAAAAAAAAAAAAAAAAAAAAAAAAAAAAAAAAAAAAAAAAAAAAAAAAAAAAAAAAAAAAAAAAAAAAAAAAAAAAAAAAAAAAAAAAAAAAAAAAAAAAAAAAAAAAAAAAAAAAAAAAAAAAAAAAAAAAAAAAAAAAAAAAAAAAAAAAAAAAAAAAAAAAAAAAAAAAAAAAAAAAAAAAAAAAAAAAAAAAAAAAAAAAAAAAAAAAAAAAAAAAAAAAAAAAAAAAAAAAAAAAAAAAAAAAAAAAAAAAAAAAAAAAAAAAAAAAAAAAAAAAAAAAAAAAAAAAAAAAAAAAAAAAAAAAAAAAAAAAAAAAAAAAAAAAAAAAAAAAAAAAAAAAAAAAAAAAAAAAAAAAAAAAAAAAAAAAAAAAAAAAAAAAAAAAAAAAAAAAAAAAAAAAAAAAAAAAAAAAAAAAAAAAAAAAAAAAAAAAAAAAAAAAAAAAAAAAAAAAAAAAAAAAAAAAAAAAAAAAAAAAAAAAAAAAAAAAAAAAAAAAAAAAAAAAAAAAAAAAAAAAAAAAAAAAAAAAAAAAAAAAAAAAAAAAAAAAAAAAAAAAAAAAAAAAAAAAAAAAAAAAAAAAAAAAAAAAAAAAAAAAAAAAAAAAAAAAAAAAAAAAAAAAAAAAAAAAAAAAAAAAAAAAAAAAAAAAAAAAAAAAAAAAAAAAAAAAAAAAAAAAAAAAAAAAAAAAAAAAAAAAAAAAAAAAAAAAAAAAAAAAAAAAAAAAAAAAAAAAAAAAAAAAAAAAAAAAAAAAAAAAAAAAAAAAAAAAAAAAAAAAAAAAAAAAAAAAAAAAAAAAAAAAAAAAAAAAAAAAAAAAAAAAAAAAAAAAAAAAAAAAAAAAAAAAAAAAAAAAAAAAAAAAAAAAAAAAAAAAAAAAAAAAAAAAAAAAAAAAAAAAAAAAAAAAAAAAAAAAAAAAAAAAAAAAAAAAAAAAAAAAAAAAAAAAAAAAAAAAAAAAAAAAAAAAAAAAAAAAAAAAAAAAAAAAAAAAAAAAAAAAAAAAAAAAAAAAAAAAAAAAAAAAAAAAAAAAAAAAAAAAAAAAAAAAAAAAAAAAAAAAAAAAAAAAAAAAAAAAAAAAAAAAAAAAAAAAAAAAAAAAAAAAAAAAAAAAAAAAAAAAAAAAAAAAAAAAAAAAAAAAAAAAAAAAAAAAAAAAAAAAAAAAAAAAAAAAAAAAAAAAAAAAAAAAAAAAAAAAAAAAAAAAAAAAAAAAAAAAAAAAAAAAAAAAAAAAAAAAAAAAAAAAAAAAAAAAAAAAAAAAAAAAAAAAAAAAAAAAAAAAAAAAAAAAAAAAAAAAAAAAAAAAAAAAAAAAAAAAAAAAAAAAAAAAAAAAAAAAAAAAAAAAAAAAAAAAAAAAAAAAAAAAAAAAAAAAAAAAAAAAAAAAAAAAAAAAAAAAAAAAAAAAAAAAAAAAAAAAAAAAAAAAAAAAAAAAAAAAAAAAAAAAAAAAAAAAAAAAAAAAAAAAAAAAAAAAAAAAAAAAAAAAAAAAAAAAAAAAAAAAAAAAAAAAAAAAAAAAAAAAAAAAAAAAAAAAAAAAAAAAAAAAAAAAAAAAAAAAAAAAAAAAAAAAAAAAAAAAAAAAAAAAAAAAAAAAAAAAAAAAAAAAAAAAAAAAAAAAAAAAAAAAAAAAAAAAAAAAAAAAAAAAAAAAAAAAAAAAAAAAAAAAAAAAAAAAAAAAAAAAAAAAAAAAAAAAAAAAAAAAAAAAAAAAAAAAAAAAAAAAAAAAAAAAAAAAAAAAAAAAAAAAAAAAAAAAAAAAAAAAAAAAAAAAAAAAAAAAAAAAAAAAAAAAAAAAAAAAAAAAAAAAAAAAAAAAAAAAAAAAAAAAAAAAAAAAAAAAAAAAAAAAAAAAAAAAAAAAAAAAAAAAAAAAAAAAAAAAAAAAAAAAAAAAAAAAAAAAAAAAAAAAAAAAAAAAAAAAAAAAAAAAAAAAAAAAAAAAAAAAAAAAAAAAAAAAAAAAAAAAAAAAAAAAAAAAAAAAAAAAAAAAAAAAAAAAAAAAAAAAAAAAAAAAAAAAAAAAAAAAAAAAAAAAAAAAAAAAAAAAAAAAAAAAAAAAAAAAAAAAAAAAAAAAAAAAAAAAAAAAAAAAAAAAAAAAAAAAAAAAAAAAAAAAAAAAAAAAAAAAAAAAAAAAAAAAAAAAAAAAAAAAAAAAAAAAAAAAAAAAAAAAAAAAAAAAAAAAAAAAAAAAAAAAAAAAAAAAAAAAAAAAAAAAAAAAAAAAAAAAAAAAAAAAAAAAAAAAAAAAAAAAAAAAAAAAAAAAAAAAAAAAAAAAAAAAAAAAAAAAAAAAAAAAAAAAAAAAAAAAAAAAAAAAAAAAAAAAAAAAAAAAAAAAAAAAAAAAAAAAAAAAAAAAAAAAAAAAAAAAAAAAAAAAAAAAAAAAAAAAAAAAAAAAAAAAAAAAAAAAAAAAAAAAAAAAAAAAAAAAAAAAAAAAAAAAAAAAAAAAAAAAAAAAAAAAAAAAAAAAAAAAAAAAAAAAAAAAAAAAAAAAAAAAAAAAAAAAAAAAAAAAAAAAAAAAAAAAAAAAAAAAAAAAAAAAAAAAAAAAAAAAAAAAAAAAAAAAAAAAAAAAAAAAAAAAAAAAAAAAAAAAAAAAAAAAAAAAAAAAAAAAAAAAAAAAAAAAAAAAAAAAAAAAAAAAAAAAAAAAAAAAAAAAAAAAAAAAAAAAAAAAAAAAAAAAAAAAAAAAAAAAAAAAAAAAAAAAAAAAAAAAAAAAAAAAAAAAAAAAAAAAAAAAAAAAAAAAAAAAAAAAAAAAAAAAAAAAAAAAAAAAAAAAAAAAAAAAAAAAAAAAAAAAAAAAAAAAAAAAAAAAAAAAAAAAAAAAAAAAAAAAAAAAAAAAAAAAAAAAAAAAAAAAAAAAAAAAAAAAAAAAAAAAAAAAAAAAAAAAAAAAAAAAAAAAAAAPZYQFHDnjOzTssRCX6uO1CsFvW594XZV63bnMJA+7n8xSz+mVe/ZIleBu/6hyCKWxFSoeSZ/YI46PRUzkcwwhKXewk=</c2pa:manifest></metadata>
  <defs>
    
  </defs>
  <g>
    <g>
      <path class="cls-2" d="M56.97,135.47c-3.08-8.62-3.21-18.96-3.21-27.91v-30.11c0-.37,0-.74,0-1.12-8.22,4.82-15.73,8.38-21.61,16.17l-.59,15.06c0,5.23,0,14.42,2.36,24.85,8.24,3.1,15.55,4.43,23.04,3.06Z"></path>
      <path class="cls-2" d="M109.78,108.67c8.22-4.82,15.73-8.38,21.61-16.17l.59-15.06c0-5.23,0-14.42-2.36-24.85-8.24-3.1-15.55-4.43-23.04-3.06,3.08,8.62,3.21,18.96,3.21,27.91v30.11c0,.37,0,.74,0,1.12Z"></path>
    </g>
    <path class="cls-2" d="M81.77,24.38c4.11,1.99,7.62,4.25,10.64,6.73,7.77-2.42,16.85-4.02,26.72-3.31-6.82-10.06-17.25-19.41-33.22-25.83l-4.14-1.67-4.14,1.67c-35.49,14.28-43.64,43-45.51,61.87,4.59-3.29,8.71-5.67,11.51-7.29l13.33-7.02c3.94-9.29,12.55-19.23,24.81-25.15Z"></path>
    <path class="cls-2" d="M81.77,160.62c-4.11-1.99-7.62-4.25-10.64-6.73-7.77,2.42-16.85,4.02-26.72,3.31,6.82,10.06,17.25,19.41,33.22,25.83l4.14,1.67,4.14-1.67c35.49-14.28,43.64-43,45.51-61.87-4.59,3.29-8.71,5.67-11.51,7.29l-13.33,7.02c-3.94,9.29-12.55,19.23-24.81,25.15Z"></path>
    <g>
      <path class="cls-4" d="M106.58,135.47c-9.01-1.64-18.03-6.7-25.78-11.18l-26.08-15.06c-.32-.19-.64-.38-.96-.56.07,9.53-.6,17.81,3.2,26.8l12.74,8.04c4.53,2.61,12.49,7.21,22.7,10.39,6.81-5.59,11.61-11.25,14.17-18.43Z"></path>
      <path class="cls-4" d="M109.78,76.33c-.07-9.53.6-17.81-3.2-26.8l-12.74-8.04c-4.53-2.61-12.49-7.21-22.7-10.39-6.81,5.59-11.61,11.25-14.17,18.43,9.01,1.64,18.03,6.7,25.78,11.18l26.08,15.06c.32.19.64.38.96.56Z"></path>
    </g>
    <path class="cls-4" d="M22.78,58.44c3.78-2.57,7.5-4.48,11.14-5.85,1.79-7.94,4.94-16.6,10.5-24.8-12.12.87-25.43,5.23-38.98,15.85l-3.51,2.75-.63,4.42c-5.38,37.88,15.42,59.29,30.83,70.35-.56-5.62-.56-10.38-.56-13.61l.59-15.06c-6.08-8.06-10.38-20.48-9.38-34.06Z"></path>
    <path class="cls-4" d="M140.77,126.56c-3.78,2.57-7.5,4.48-11.14,5.85-1.79,7.94-4.94,16.6-10.5,24.8,12.12-.87,25.43-5.23,38.98-15.85l3.51-2.75.63-4.42c5.38-37.88-15.42-59.29-30.83-70.35.56,5.62.56,10.38.56,13.61l-.59,15.06c6.08,8.06,10.38,20.48,9.38,34.06Z"></path>
    <g>
      <path class="cls-1" d="M32.16,92.5c5.93-6.98,14.82-12.26,22.57-16.74l26.08-15.06c.32-.19.65-.37.97-.55-8.28-4.71-15.12-9.43-24.81-10.62l-13.33,7.02c-4.53,2.61-12.48,7.21-20.35,14.47,1.44,8.69,3.94,15.68,8.87,21.49Z"></path>
      <path class="cls-1" d="M81.77,124.84c8.28,4.71,15.12,9.43,24.81,10.62l13.33-7.02c4.53-2.61,12.48-7.21,20.35-14.47-1.44-8.69-3.94-15.68-8.87-21.49-5.93,6.98-14.82,12.26-22.57,16.74l-26.08,15.06c-.32.19-.65.37-.97.55Z"></path>
    </g>
    <path class="cls-1" d="M140.77,58.44c.33,4.56.13,8.73-.51,12.58,5.98,5.52,11.91,12.58,16.23,21.49,5.3-10.93,8.19-24.64,5.76-41.68l-.63-4.42-3.51-2.75c-30.11-23.6-59.06-16.29-76.34-8.47,5.15,2.33,9.27,4.7,12.07,6.32l12.74,8.04c10.02-1.24,22.92,1.25,34.19,8.91Z"></path>
    <path class="cls-1" d="M22.78,126.56c-.33-4.56-.13-8.73.51-12.58-5.98-5.52-11.91-12.58-16.23-21.49-5.3,10.93-8.19,24.64-5.76,41.68l.63,4.42,3.51,2.75c30.11,23.6,59.06,16.29,76.34,8.47-5.15-2.33-9.27-4.7-12.07-6.32l-12.74-8.04c-10.02,1.24-22.92-1.26-34.19-8.91Z"></path>
  </g>
  <g>
    <path class="cls-3" d="M257.03,63.39v61.41h-10.07v-26.86h-28.89v26.86h-10.07v-61.41h10.07v26.33h28.89v-26.33h10.07Z"></path>
    <path class="cls-3" d="M268.71,87.24c2.03-3.77,4.8-6.7,8.31-8.79,3.5-2.09,7.38-3.14,11.62-3.14,3.83,0,7.17.75,10.03,2.25,2.86,1.5,5.14,3.37,6.85,5.61v-7.07h10.16v48.69h-10.16v-7.25c-1.71,2.3-4.04,4.21-6.98,5.74-2.95,1.53-6.3,2.3-10.07,2.3-4.18,0-8.01-1.07-11.49-3.22-3.48-2.15-6.23-5.15-8.26-9.01-2.03-3.86-3.05-8.23-3.05-13.12s1.02-9.22,3.05-12.99ZM303.44,91.66c-1.38-2.47-3.2-4.36-5.43-5.65-2.24-1.29-4.65-1.94-7.25-1.94s-5.01.63-7.25,1.9c-2.24,1.27-4.05,3.12-5.43,5.57-1.38,2.45-2.08,5.35-2.08,8.7s.69,6.3,2.08,8.84c1.38,2.53,3.21,4.46,5.48,5.79,2.27,1.33,4.67,1.99,7.2,1.99s5.01-.65,7.25-1.94c2.24-1.29,4.05-3.19,5.43-5.7,1.38-2.5,2.08-5.43,2.08-8.79s-.69-6.27-2.08-8.75Z"></path>
    <path class="cls-3" d="M326.78,87.24c2.03-3.77,4.8-6.7,8.31-8.79,3.5-2.09,7.41-3.14,11.71-3.14,3.18,0,6.32.69,9.41,2.08,3.09,1.38,5.55,3.23,7.38,5.52v-23.5h10.16v65.39h-10.16v-7.33c-1.65,2.36-3.93,4.3-6.85,5.83s-6.26,2.3-10.03,2.3c-4.24,0-8.12-1.07-11.62-3.22-3.5-2.15-6.27-5.15-8.31-9.01-2.03-3.86-3.05-8.23-3.05-13.12s1.02-9.22,3.05-12.99ZM361.5,91.66c-1.39-2.47-3.2-4.36-5.43-5.65-2.24-1.29-4.65-1.94-7.25-1.94s-5.01.63-7.25,1.9c-2.24,1.27-4.05,3.12-5.43,5.57-1.39,2.45-2.08,5.35-2.08,8.7s.69,6.3,2.08,8.84c1.38,2.53,3.21,4.46,5.48,5.79s4.67,1.99,7.2,1.99,5.01-.65,7.25-1.94c2.24-1.29,4.05-3.19,5.43-5.7,1.38-2.5,2.08-5.43,2.08-8.79s-.69-6.27-2.08-8.75Z"></path>
    <path class="cls-3" d="M400.66,77.39c2.44-1.38,5.35-2.08,8.7-2.08v10.43h-2.56c-3.95,0-6.94,1-8.97,3-2.03,2-3.05,5.48-3.05,10.43v25.62h-10.07v-48.69h10.07v7.07c1.47-2.47,3.43-4.4,5.88-5.79Z"></path>
    <path class="cls-3" d="M424.26,122.45c-3.71-2.09-6.63-5.04-8.75-8.84-2.12-3.8-3.18-8.2-3.18-13.21s1.09-9.34,3.27-13.17c2.18-3.83,5.15-6.77,8.92-8.84,3.77-2.06,7.98-3.09,12.64-3.09s8.86,1.03,12.63,3.09c3.77,2.06,6.74,5.01,8.92,8.84,2.18,3.83,3.27,8.22,3.27,13.17s-1.12,9.34-3.36,13.17c-2.24,3.83-5.29,6.79-9.15,8.88-3.86,2.09-8.11,3.14-12.77,3.14s-8.75-1.04-12.46-3.14ZM444.01,114.99c2.27-1.24,4.11-3.09,5.52-5.57,1.41-2.47,2.12-5.48,2.12-9.01s-.68-6.52-2.03-8.97c-1.36-2.44-3.15-4.28-5.39-5.52-2.24-1.24-4.65-1.86-7.25-1.86s-4.99.62-7.2,1.86c-2.21,1.24-3.96,3.08-5.26,5.52-1.3,2.45-1.94,5.43-1.94,8.97,0,5.24,1.34,9.29,4.02,12.15,2.68,2.86,6.05,4.28,10.12,4.28,2.59,0,5.02-.62,7.29-1.86Z"></path>
    <path class="cls-3" d="M504.9,77.7c3.03,1.59,5.4,3.95,7.11,7.07,1.71,3.12,2.56,6.89,2.56,11.31v28.72h-9.98v-27.21c0-4.36-1.09-7.7-3.27-10.03-2.18-2.33-5.15-3.49-8.92-3.49s-6.76,1.16-8.97,3.49c-2.21,2.33-3.31,5.67-3.31,10.03v27.21h-10.07v-48.69h10.07v5.57c1.65-2,3.75-3.56,6.32-4.68,2.56-1.12,5.29-1.68,8.17-1.68,3.83,0,7.26.8,10.29,2.39Z"></path>
  </g>
</svg>